<mxfile host="app.diagrams.net" modified="2024-04-30T18:52:38.194Z" agent="Mozilla/5.0 (Windows NT 10.0; Win64; x64) AppleWebKit/537.36 (KHTML, like Gecko) Chrome/124.0.0.0 Safari/537.36" etag="8OaA5q84mibU0iVTvm2m" version="24.3.1" type="device">
  <diagram id="xmBBovGr6-4fbqpckJKo" name="Page-1">
    <mxGraphModel dx="830" dy="477" grid="1" gridSize="10" guides="1" tooltips="1" connect="1" arrows="1" fold="1" page="1" pageScale="1" pageWidth="827" pageHeight="1169" math="0" shadow="0">
      <root>
        <mxCell id="0" />
        <mxCell id="1" parent="0" />
        <mxCell id="YgLCpqBoeRSBLpxQAKj4-2" value="Customer" style="shape=umlActor;verticalLabelPosition=bottom;verticalAlign=top;html=1;outlineConnect=0;" parent="1" vertex="1">
          <mxGeometry x="540" y="280" width="30" height="60" as="geometry" />
        </mxCell>
        <mxCell id="gz7x71-tzImeIPMa4Hl6-1" value="Manager" style="shape=umlActor;verticalLabelPosition=bottom;verticalAlign=top;html=1;outlineConnect=0;" parent="1" vertex="1">
          <mxGeometry x="270" y="280" width="30" height="60" as="geometry" />
        </mxCell>
        <mxCell id="gz7x71-tzImeIPMa4Hl6-3" value="EZElectronics" style="ellipse;whiteSpace=wrap;html=1;" parent="1" vertex="1">
          <mxGeometry x="360" y="340" width="120" height="80" as="geometry" />
        </mxCell>
        <mxCell id="gz7x71-tzImeIPMa4Hl6-4" value="" style="endArrow=none;html=1;rounded=0;" parent="1" source="gz7x71-tzImeIPMa4Hl6-1" target="gz7x71-tzImeIPMa4Hl6-3" edge="1">
          <mxGeometry width="50" height="50" relative="1" as="geometry">
            <mxPoint x="240" y="300" as="sourcePoint" />
            <mxPoint x="440" y="240" as="targetPoint" />
          </mxGeometry>
        </mxCell>
        <mxCell id="gz7x71-tzImeIPMa4Hl6-6" value="Store owner" style="shape=umlActor;verticalLabelPosition=bottom;verticalAlign=top;html=1;outlineConnect=0;" parent="1" vertex="1">
          <mxGeometry x="540" y="410" width="30" height="60" as="geometry" />
        </mxCell>
        <mxCell id="gz7x71-tzImeIPMa4Hl6-7" value="" style="endArrow=none;html=1;rounded=0;" parent="1" source="gz7x71-tzImeIPMa4Hl6-3" edge="1" target="gz7x71-tzImeIPMa4Hl6-6">
          <mxGeometry width="50" height="50" relative="1" as="geometry">
            <mxPoint x="482" y="362" as="sourcePoint" />
            <mxPoint x="590" y="480" as="targetPoint" />
          </mxGeometry>
        </mxCell>
        <mxCell id="Y9HWQTS5JEadxjqp45hB-1" value="Payment system" style="shape=umlActor;verticalLabelPosition=bottom;verticalAlign=top;html=1;outlineConnect=0;" parent="1" vertex="1">
          <mxGeometry x="270" y="410" width="30" height="60" as="geometry" />
        </mxCell>
        <mxCell id="Y9HWQTS5JEadxjqp45hB-2" value="" style="endArrow=none;html=1;rounded=0;" parent="1" source="gz7x71-tzImeIPMa4Hl6-3" target="Y9HWQTS5JEadxjqp45hB-1" edge="1">
          <mxGeometry width="50" height="50" relative="1" as="geometry">
            <mxPoint x="430" y="390" as="sourcePoint" />
            <mxPoint x="530" y="320" as="targetPoint" />
          </mxGeometry>
        </mxCell>
        <mxCell id="ghFsTnW5XGFm-SXTEQdb-5" value="" style="endArrow=none;html=1;rounded=0;" edge="1" parent="1" source="gz7x71-tzImeIPMa4Hl6-3" target="YgLCpqBoeRSBLpxQAKj4-2">
          <mxGeometry width="50" height="50" relative="1" as="geometry">
            <mxPoint x="390" y="630" as="sourcePoint" />
            <mxPoint x="440" y="580" as="targetPoint" />
          </mxGeometry>
        </mxCell>
      </root>
    </mxGraphModel>
  </diagram>
</mxfile>
